<svg viewBox="0 0 64 64" xml:space="preserve" xmlns="http://www.w3.org/2000/svg"><path d="M62 30h-2.561l.521-2.608a1.999 1.999 0 0 0-1.568-2.353 1.995 1.995 0 0 0-2.354 1.569L55.36 30h-5.474l2.741-3.837a2 2 0 0 0-.466-2.79 1.998 1.998 0 0 0-2.79.465L44.971 30H43.11a5.968 5.968 0 0 0-.717-4.001 6.008 6.008 0 0 0-3.118-2.615l.943-1.637 7.537-.73a1.998 1.998 0 0 0 1.798-2.184 2 2 0 0 0-2.184-1.798l-4.693.455 2.736-4.74 3.277 1.108a1.994 1.994 0 0 0 2.535-1.254 2 2 0 0 0-1.254-2.535l-2.519-.853L48.732 7a2 2 0 0 0-3.464-2l-1.28 2.217-1.998-1.755a2 2 0 1 0-2.64 3.005l2.599 2.284-2.737 4.74-1.952-4.292a2 2 0 0 0-3.641 1.656l3.136 6.893-.937 1.625C34.778 20.516 33.448 20 32 20s-2.778.516-3.816 1.373l-.937-1.625 3.136-6.893a1.995 1.995 0 0 0-.992-2.648 2 2 0 0 0-2.649.992l-1.952 4.292-2.737-4.74 2.599-2.284a2 2 0 1 0-2.64-3.005l-1.997 1.755L18.732 5a2 2 0 1 0-3.464 2l1.28 2.217-2.519.853a2 2 0 0 0-1.254 2.535 1.995 1.995 0 0 0 2.535 1.254l3.277-1.108 2.736 4.74-4.693-.455a2 2 0 0 0-.386 3.982l7.537.73.943 1.637A6.006 6.006 0 0 0 21.605 26a5.97 5.97 0 0 0-.716 4h-1.861l-4.401-6.163a2 2 0 0 0-3.256 2.325L14.113 30H8.64l-.679-3.392a1.994 1.994 0 0 0-2.354-1.569 1.999 1.999 0 0 0-1.568 2.353L4.561 30H2a2 2 0 0 0 0 4h2.561l-.521 2.607a2 2 0 1 0 3.921.786L8.64 34h5.474l-2.741 3.838A1.998 1.998 0 0 0 12.998 41c.624 0 1.239-.291 1.63-.838L19.029 34h1.861a5.974 5.974 0 0 0 .717 3.999 5.998 5.998 0 0 0 3.118 2.615l-.943 1.638-7.537.73a2 2 0 1 0 .386 3.983l4.693-.455-2.736 4.74-3.277-1.108a1.994 1.994 0 0 0-2.535 1.254 1.998 1.998 0 0 0 1.254 2.534l2.519.854L15.268 57a2 2 0 0 0 3.464 2l1.28-2.217 1.997 1.755a2 2 0 0 0 2.64-3.005L22.05 53.25l2.737-4.74 1.952 4.293a2 2 0 0 0 3.641-1.657l-3.136-6.894.937-1.625a5.99 5.99 0 0 0 7.635 0l.937 1.625-3.136 6.894a1.995 1.995 0 0 0 .992 2.648 2 2 0 0 0 2.649-.991l1.952-4.293 2.737 4.74-2.599 2.283a2.002 2.002 0 0 0-.182 2.823 2 2 0 0 0 2.822.182l1.997-1.755L45.268 59a2 2 0 1 0 3.464-2l-1.28-2.217 2.519-.854a1.998 1.998 0 0 0 1.254-2.534 1.994 1.994 0 0 0-2.535-1.254l-3.277 1.108-2.736-4.74 4.693.455a2 2 0 0 0 .386-3.983l-7.537-.73-.943-1.637a6.01 6.01 0 0 0 3.117-2.615 5.978 5.978 0 0 0 .717-4h1.862l4.401 6.162a1.994 1.994 0 0 0 2.789.466 2 2 0 0 0 .466-2.789L49.887 34h5.474l.679 3.393a1.998 1.998 0 0 0 2.353 1.568 2 2 0 0 0 1.568-2.354L59.439 34H62a2 2 0 0 0 0-4zm-23.073 6c-.214.37-.546.643-.927.812v-1.349l1.177-.679a1.99 1.99 0 0 1-.25 1.216zm-13.855-.001a1.98 1.98 0 0 1-.25-1.215l1.178.68v1.343a1.965 1.965 0 0 1-.928-.808zM25.071 28c.215-.372.547-.644.929-.813v1.348l-1.179.681c-.047-.42.034-.843.25-1.216zM30 33.154v-2.31l1.999-1.154L34 30.845v2.309l-2.001 1.154L30 33.154zm8.928-5.155c.221.383.295.808.25 1.217L38 28.536v-1.35c.381.17.714.442.928.813zm-5.75-3.607-1.179.68-1.177-.68c.331-.244.737-.392 1.178-.392s.846.148 1.178.392zm-2.357 15.215 1.178-.68 1.179.681c-.331.244-.737.392-1.178.392s-.847-.148-1.179-.393z" fill="#ffffff" class="fill-000000"></path></svg>